<?xml version="1.0" encoding="utf-8"?>
<!-- Generator: Adobe Illustrator 16.0.0, SVG Export Plug-In . SVG Version: 6.00 Build 0)  -->
<!DOCTYPE svg PUBLIC "-//W3C//DTD SVG 1.1//EN" "http://www.w3.org/Graphics/SVG/1.1/DTD/svg11.dtd">
<svg version="1.1" id="Layer_1" xmlns="http://www.w3.org/2000/svg" xmlns:xlink="http://www.w3.org/1999/xlink" x="0px" y="0px"
	 width="1920px" height="1080px" viewBox="0 0 1920 1080" enable-background="new 0 0 1920 1080" xml:space="preserve">
<g>
	<g>
		<path fill="#D8B2AF" d="M1076.864,374.029c-17.537-12.987-39.354-11.43-62.094-11.767c-36.146,0.857-72.35,0.897-108.508-0.006
			c-21.773-0.545-44.513-1.15-62.199,11.455c-6.368,4.537-12.02,10.384-16.094,17.058c-7.283,11.933-8.083,26.457-7.997,40.716
			c0.312,52.977-0.068,105.954,0.204,158.926c0.136,25.23,1.776,26.916,27.053,26.994c75.285,0.223,150.564,0.213,225.849-0.043
			c25.311-0.086,27.245-2.078,27.382-26.775c0.285-49.26-0.822-98.541,0.512-147.766
			C1101.697,416.13,1098.16,389.799,1076.864,374.029z M1063.69,597.602c-35.297-0.369-70.598-0.131-105.897-0.119
			c-33.438,0.012-66.891-0.328-100.322,0.176c-13.835,0.211-20.071-4.246-19.881-19.146c0.644-49.224-0.271-98.472,0.484-147.697
			c0.472-30.726,16.897-47.755,48.663-49.509c29.635-1.635,59.425-0.681,89.146-0.704c19.504-0.017,39.104-0.908,58.488,0.67
			c30.204,2.452,46.597,18.533,47.278,48.164c1.146,50.139,0.142,100.323,0.586,150.479
			C1082.354,593.436,1076.308,597.732,1063.69,597.602z"/>
		<path fill="#D8B2AF" d="M964.01,72.066c-11.552,0.22-16.271,3.707-27.248,8.611c-30.964,13.828-121.734,59.386-125.53,61.917
			c-11.232,7.492-10.981,15.69,1.771,22.711c9.706,5.364,19.735,10.189,29.828,14.81c8.656,3.961,13.708,9.928,10.927,19.595
			c-6.659,31.525-1.6,57.33,14.088,84.397c4.629,7.984,12.234,17.186,19.25,23.157c35.129,29.875,75.103,36.437,116.642,18.034
			c40.461-17.926,62.599-50.899,64.137-96.021c0.312-9.184-0.71-18.505-2.038-27.626c-1.123-7.72-2.826-16.342,6.941-17.949
			c11.785-1.93,9.611,8.538,9.821,15.292c0.476,15.729,0.079,31.481,0.448,47.216c0.153,6.448,0.721,14.14,9.831,13.442
			c6.868-0.522,7.868-7.033,7.936-12.67c0.25-19.436,0.153-38.883,0.312-58.33c0.046-6.426-1.131-13.243,2.521-18.987
			c4.171-6.567,16.171-9.077,12.375-19.498C1112.643,140.903,972.354,72.066,964.01,72.066z M955.25,317.254
			c-51.265-2.826-91.167-50.376-84.68-100.907c2.181-16.956,5.443-19.01,21.569-11.773c16.904,7.589,33.706,15.479,50.101,24.102
			c12.709,6.687,24.431,6.255,36.959-0.272c15.603-8.134,31.524-15.695,47.544-22.989c17.647-8.032,21.115-5.955,23.203,12.737
			c0.312,2.748,0.047,5.551,0.047,8.333C1050.844,278.412,1007.177,320.116,955.25,317.254z M1050.601,172.883
			c-26.702,12.959-53.482,25.753-80.042,38.985c-7.465,3.712-13.991,3.032-21.12-0.522c-34.059-16.972-68.214-33.746-102.335-50.587
			c-3.46-1.715-11.801-6.155-6.855-9.985c34.693-21.956,73.359-37.561,110.75-55.611c7.306-3.53,14.485-2.52,21.365,1.158
			l100.944,50.712c0,0,5.146,2.823,4.957,6.631C1077.984,159.324,1062.454,167.362,1050.601,172.883z"/>
	</g>
	<linearGradient id="SVGID_1_" gradientUnits="userSpaceOnUse" x1="96.8994" y1="881.9717" x2="1823.2197" y2="881.9717">
		<stop  offset="0" style="stop-color:#DBD9D9"/>
		<stop  offset="1" style="stop-color:#D3665C"/>
	</linearGradient>
	<path fill="url(#SVGID_1_)" d="M324.482,886.744c0.007,2.066-2.175,6.303-4.858,6.279l-92.849,0.119
		c-1.666,0-3.105-0.594-4.352-1.779c-1.241-1.178-1.875-2.59-1.875-4.189c0-1.592,0.583-3.079,1.788-4.271
		c1.174-1.186,2.662-1.903,4.438-1.903h93.101C323.285,881,324.475,884.928,324.482,886.744z M344.549,881.27
		c-4.999-0.369-7.024,2.451-7.43,5.303c-0.463,3.256-0.392,3.164-0.755,6.596c-2.403,28.533-13.159,52.4-34.176,71.947
		c-21.035,19.543-47.059,29.326-78.078,29.326c-31.032,0-57.566-10.994-79.595-32.967c-22.034-21.963-33.051-48.469-33.051-79.498
		s10.962-57.588,32.874-79.688c21.903-22.084,48.384-33.133,79.415-33.133c21.434,0,40.974,5.363,58.626,16.086
		c17.644,10.711,30.855,24.66,39.618,41.834c1.065,1.666,2.773,2.484,5.151,2.484c1.89,0,3.462-0.734,4.707-2.225
		c1.241-1.469,1.862-3.162,1.862-5.057c0-1.062-0.708-2.666-2.13-4.791c-9.941-18.592-24.571-33.496-43.882-44.686
		c-19.314-11.189-40.623-16.793-63.953-16.793c-22.985,0-44.238,5.664-63.792,16.969c-19.537,11.311-34.942,26.682-46.194,46.102
		c-11.255,19.424-16.868,40.391-16.868,62.896c0,22.746,5.685,43.762,17.045,63.061c11.378,19.311,26.749,34.621,46.105,45.928
		c19.377,11.326,40.597,16.969,63.704,16.969c23.565,0,45.061-5.467,64.485-16.438c19.419-10.951,34.582-25.578,45.479-43.869
		c10.899-18.307,16.584-38.471,17.062-60.498C350.781,883.225,348.594,881.57,344.549,881.27z M415.962,760.09
		c-4.153-0.049-6.962,2.082-6.962,6.227v232.74c0,2.008,0.617,3.674,1.982,4.971c1.355,1.301,2.957,1.959,4.854,1.959
		c1.886,0,4.147-0.68,5.502-2.047c1.35-1.369,2.662-2.986,2.662-4.883v-97v-11.732V772.002l-0.586-5.621
		C423.441,761.807,419.727,760.135,415.962,760.09z M528.622,899.381c17.414-3.07,31.529-11.131,42.361-24.16
		c10.84-13.023,16.27-27.646,16.27-43.873c0-19.9-6.938-36.297-20.795-50.1C552.604,767.455,535.846,761,516.178,761h-75.916
		c-3.738,0-5.473,3.504-5.382,5.479c0.092,1.996,1.314,5.688,5.258,5.688l73.553-0.051c16.472,0,30.532,5.715,42.2,17.27
		c11.664,11.545,17.501,25.521,17.501,41.99c0,16.58-6.162,30.374-18.48,41.743C542.592,884.495,527.731,890,510.317,890h-70.18
		c-4.647,0-5.242,4.557-5.242,6.037c0,1.93,0.23,5.838,5.242,5.838l74.979,0.141l61.825,100.754c1.3,1.896,3.143,2.844,5.504,2.844
		c1.896,0,3.478-0.616,4.719-1.86c1.239-1.236,1.862-2.802,1.862-4.698c0-1.42-0.356-2.605-1.066-3.555L528.622,899.381z
		 M745.36,762.234c-1.177-2.143-2.991-3.205-5.414-3.205c-2.428,0-4.236,1.062-5.414,3.205L621.004,996.213
		c-0.479,0.945-0.709,2.008-0.709,3.195c0,2.01,0.674,3.676,2.043,4.975c1.363,1.301,2.987,1.957,4.885,1.957
		c2.962,0.117,5.026-1.189,6.222-3.912l34.464-72.127l5.502-11.201l66.63-138.221L806.483,919.1l5.504,11.201l34.635,72.127
		c1.429,2.611,3.621,3.912,6.589,3.912c1.895,0,3.489-0.676,4.79-2.047c1.301-1.365,1.955-2.98,1.955-4.885
		c0-0.939-0.236-2.02-0.708-3.195L745.36,762.234z M1064.091,776.443c-16.463-9.465-34.176-14.816-53.133-16.062
		c-0.004-0.027-0.004-0.057-0.009-0.084l-1.582-0.049c-2.352-0.127-4.72-0.248-7.11-0.248h-74.973L911,760.051
		c-10,0-10,13.803,0,13.803c0,0,15.893,0.146,38.089-0.854h53.168c30.093,0,55.731,10.9,76.925,32.096
		c21.198,21.209,31.812,46.875,31.812,76.729c0,29.844-10.614,55.277-31.812,76.477C1057.988,979.5,1032.35,990,1002.257,990
		h-49.029H910c-9,0-9,14,0,14c0,0,11.088,0,27.292,0h64.965c2.803,0,5.786-0.1,8.536-0.871c0.006,0,0.207-0.1,0.207-0.1v0.561
		c19-1.201,36.723-6.564,53.291-16.088c18.941-10.891,33.825-25.76,44.847-44.596c11.013-18.824,16.466-39.141,16.466-60.93
		c0-21.795-5.527-42.104-16.539-60.938C1098.043,802.197,1083.032,787.344,1064.091,776.443z M1418.516,757.965
		c-2.005,0-3.393,0.742-4.77,2.219c-1.355,1.49-1.746,3.176-1.746,5.072v5.502v0.002v225.799c0,0.033,0,0.062,0,0.096v0.277
		c0,0.252-0.271,0.471-0.223,0.664c0.217,1.576,0.785,2.947,2,4.129c1.475,1.418,3.16,2.125,5.17,2.125
		c2.004,0,4.163-0.742,5.538-2.219c1.356-1.488,2.515-3.176,2.515-5.072v-5.498v-0.006V765.256c0-2.023-1.26-3.73-2.736-5.164
		C1422.791,758.674,1420.526,757.965,1418.516,757.965z M1563.135,991h-23.875H1446c-9,0-9,13,0,13c1,0,3,0,4,0v-0.043
		l113.416-0.066c1.658,0,2.976-0.609,4.224-1.799c1.24-1.188,1.792-2.637,1.792-4.359c0-1.717-0.658-3.293-1.898-4.648
		C1566.285,991.721,1564.79,991,1563.135,991z M1820.649,760.633c-1.478-1.301-3.172-1.959-5.06-1.959
		c-2.487,0-4.561,1.184-6.213,3.561l-103.04,141.955l-101.804-141.955c-1.422-2.377-3.495-3.561-6.23-3.561
		c-1.884,0-3.52,0.688-4.884,2.041c-1.354,1.365-2.043,3.123-2.043,5.246c0,1.426,0.335,2.613,1.044,3.557L1699,917.682v80.664
		c0,2.248,0.771,4.027,2.24,5.328c1.48,1.301,3.226,1.951,5.173,1.951c1.955,0,4.341-0.68,5.76-2.043
		c1.42-1.361,2.827-3.105,2.827-5.236v-80.664l107.5-147.809c0.711-1.186,0.72-2.611,0.72-4.264
		C1823.22,763.59,1822.14,761.934,1820.649,760.633z M791,920c-32,0-64.955,0-97.273,0c-2.371,0-4.727,0-6.727,0c-7,0-7,10,0,10
		c32,0,64.252,0,96.571,0c2.371,0,5.429,0,7.429,0C797,930,797,920,791,920z M919,973c0-10,0-19.562,0-29.43
		c0-37.559,0-75.293,0-113.176c0-3.68,0-7.367,0-11.049c0-6.176,0-12.346,0-18.529c0-3.508,0-6.816,0-10.816c0-9-15-9-15,0
		c0,0,0,10.047,0,25.551c0,1.23,0,2.5,0,3.795c0,32.279,0,83.479,0,114.434c0,3.51,0,7.162,0,9.791c0,7.156,0,13.846,0,19.787
		c0,3.51,0,6.643,0,9.643C904,983,919,983,919,973z M1190.556,773.369c0,0,42.896-0.369,84.1-0.369h64.81
		c1.886,0,3.445-0.732,4.62-2.1c1.175-1.361,1.773-2.898,1.773-4.621c0-1.715-0.599-3.227-1.773-4.402
		c-1.175-1.191-2.734-1.877-4.62-1.877h-149.583c-4.156,0-6.228,2.127-6.228,6.271l0.017,0.109
		C1183.49,769.805,1185.782,773.369,1190.556,773.369z M1343.015,991h-130.609H1190c-8,0-8,12.875,0,12.875
		c0,0,0.646,0.125,1.536,0.125h151.479c1.888,0,3.465-0.664,4.706-1.854c1.247-1.188,1.862-2.664,1.862-4.389
		c0-1.717-0.615-3.303-1.862-4.658C1346.479,991.734,1344.902,991,1343.015,991z M1198,975c0-10,0-20.248,0-30.115
		c0-19.949,0-39.953,0-60l0.226,2.115h137.867c1.654,0,3.104-0.738,4.352-1.975c1.24-1.244,1.861-2.826,1.861-4.531
		c0-1.723-0.621-2.979-1.861-4.061c-1.248-1.062-2.697-1.434-4.352-1.434h-137.867l-0.226-7.279c0-11.99,0-23.99,0-36.012
		c0-3.68,0-7.367,0-11.049c0-6.176,0-12.344,0-18.529c0-3.508,0-7.131,0-11.131c0-8-14-8-14,0c0,0,0,10.361,0,25.865
		c0,1.23,0,2.5,0,3.795c0,32.279,0,83.479,0,114.436c0,3.508,0,7.16,0,9.789c0,7.156,0,13.846,0,19.787c0,3.51,0,7.328,0,10.328
		C1184,984,1198,984,1198,975z"/>
</g>
</svg>
