<?xml version="1.0" encoding="utf-8"?>
<!-- Generator: Adobe Illustrator 16.0.0, SVG Export Plug-In . SVG Version: 6.00 Build 0)  -->
<!DOCTYPE svg PUBLIC "-//W3C//DTD SVG 1.1//EN" "http://www.w3.org/Graphics/SVG/1.1/DTD/svg11.dtd">
<svg version="1.1" id="Layer_1" xmlns="http://www.w3.org/2000/svg" xmlns:xlink="http://www.w3.org/1999/xlink" x="0px" y="0px"
	 width="2904px" height="3056px" viewBox="0 0 2904 3056" enable-background="new 0 0 2904 3056" xml:space="preserve">
<g>
	<path fill="#D8B2AF" d="M1490.639,1113.921c-26.682-19.759-59.875-17.39-94.471-17.902c-54.994,1.304-110.076,1.365-165.088-0.008
		c-33.129-0.829-67.724-1.75-94.635,17.427c-9.687,6.903-18.287,15.799-24.484,25.952c-11.081,18.156-12.298,40.253-12.168,61.947
		c0.476,80.602-0.103,161.202,0.312,241.796c0.208,38.387,2.703,40.952,41.16,41.072c114.542,0.338,229.075,0.32,343.615-0.068
		c38.509-0.129,41.453-3.161,41.661-40.736c0.433-74.945-1.252-149.924,0.776-224.817
		C1528.422,1177.976,1523.04,1137.915,1490.639,1113.921z M1470.596,1454.074c-53.701-0.562-107.409-0.199-161.117-0.181
		c-50.875,0.017-101.769-0.501-152.635,0.268c-21.046,0.319-30.537-6.46-30.245-29.13c0.977-74.893-0.413-149.82,0.735-224.713
		c0.716-46.748,25.709-72.656,74.037-75.325c45.09-2.487,90.413-1.036,135.631-1.071c29.675-0.026,59.494-1.382,88.986,1.02
		c45.954,3.73,70.895,28.197,71.932,73.278c1.745,76.283,0.216,152.636,0.891,228.944
		C1498.99,1447.735,1489.793,1454.273,1470.596,1454.074z"/>
	<path fill="#D8B2AF" d="M1318.938,654.503c-17.575,0.334-24.754,5.64-41.456,13.102c-47.11,21.038-185.212,90.352-190.988,94.204
		c-17.089,11.398-16.707,23.872,2.694,34.553c14.768,8.162,30.028,15.502,45.384,22.532c13.169,6.027,20.855,15.104,16.624,29.812
		c-10.131,47.963-2.434,87.225,21.435,128.405c7.041,12.148,18.612,26.147,29.286,35.233
		c53.449,45.452,114.264,55.436,177.465,27.437c61.558-27.272,95.24-77.44,97.58-146.089c0.475-13.973-1.08-28.154-3.101-42.032
		c-1.709-11.745-4.301-24.864,10.562-27.308c17.929-2.936,14.622,12.989,14.94,23.266c0.726,23.931,0.121,47.896,0.684,71.835
		c0.232,9.811,1.097,21.513,14.957,20.451c10.45-0.795,11.971-10.7,12.073-19.276c0.38-29.57,0.234-59.158,0.476-88.745
		c0.068-9.777-1.72-20.148,3.834-28.888c6.348-9.992,24.604-13.81,18.828-29.665
		C1545.074,759.235,1331.634,654.503,1318.938,654.503z M1305.61,1027.542c-77.994-4.3-138.707-76.646-128.835-153.524
		c3.317-25.796,8.283-28.923,32.818-17.912c25.719,11.546,51.281,23.55,76.223,36.669c19.336,10.173,37.17,9.517,56.23-0.415
		c23.74-12.375,47.964-23.879,72.336-34.977c26.85-12.22,32.125-9.06,35.304,19.379c0.475,4.18,0.069,8.446,0.069,12.678
		C1451.052,968.445,1384.613,1031.896,1305.61,1027.542z M1450.68,807.891c-40.624,19.716-81.369,39.182-121.778,59.313
		c-11.357,5.647-21.288,4.612-32.134-0.794c-51.817-25.822-103.782-51.342-155.694-76.965c-5.267-2.608-17.955-9.364-10.432-15.191
		c52.785-33.405,111.614-57.146,168.5-84.609c11.115-5.371,22.039-3.834,32.506,1.762l153.582,77.155c0,0,7.827,4.295,7.541,10.089
		C1492.345,787.261,1468.715,799.491,1450.68,807.891z"/>
</g>
<linearGradient id="SVGID_1_" gradientUnits="userSpaceOnUse" x1="151.7822" y1="1886.7266" x2="2777.8701" y2="1886.7266">
	<stop  offset="0" style="stop-color:#DBD9D9"/>
	<stop  offset="1" style="stop-color:#D3665C"/>
</linearGradient>
<path fill="url(#SVGID_1_)" d="M498.036,1893.863c0.01,3.145-3.309,9.652-7.391,9.615l-141.265,0.214
	c-2.534,0-4.724-0.888-6.62-2.694c-1.889-1.789-2.853-3.929-2.853-6.363c0-2.422,0.887-4.806,2.72-6.617
	c1.786-1.807,4.051-3.018,6.752-3.018h141.648C496.215,1885,498.025,1891.1,498.036,1893.863z M528.567,1885.659
	c-7.605-0.562-10.688,3.729-11.304,8.068c-0.705,4.951-0.596,4.812-1.148,10.034c-3.656,43.411-20.021,79.725-51.997,109.463
	c-32.003,29.733-71.596,44.618-118.791,44.618c-47.213,0-87.585-16.727-121.099-50.158c-33.523-33.415-50.284-73.74-50.284-120.952
	c0-47.207,16.676-87.616,50.015-121.237c33.325-33.602,73.613-50.41,120.825-50.41c32.61,0,62.34,8.158,89.196,24.474
	c26.845,16.296,46.945,37.518,60.277,63.648c1.621,2.534,4.22,3.78,7.837,3.78c2.876,0,5.268-1.118,7.162-3.385
	c1.889-2.234,2.834-4.812,2.834-7.695c0-1.615-1.079-4.057-3.242-7.289c-15.125-28.285-37.384-50.962-66.764-67.984
	c-29.386-17.023-61.806-25.551-97.301-25.551c-34.971,0-67.306,8.617-97.056,25.816c-29.724,17.209-53.161,40.595-70.282,70.143
	c-17.124,29.551-25.664,61.451-25.664,95.69c0,34.607,8.649,66.584,25.932,95.946c17.312,29.379,40.697,52.671,70.147,69.875
	c29.482,17.23,61.765,25.817,96.922,25.817c35.854,0,68.558-8.318,98.111-25.009c29.545-16.662,52.614-38.917,69.195-66.745
	c16.582-27.851,25.229-58.53,25.958-92.044C538.048,1888.633,534.721,1886.117,528.567,1885.659z M636.906,1701.292
	c-6.319-0.075-10.906,3.166-10.906,9.473v354.1c0,3.055,1.253,5.59,3.328,7.562c2.062,1.979,4.654,2.98,7.541,2.98
	c2.869,0,5.665-1.033,7.727-3.114c2.054-2.083,3.405-4.542,3.405-7.429v-147.578v-17.851v-180.021l-0.325-8.553
	C647.717,1703.903,642.633,1701.36,636.906,1701.292z M808.623,1913.214c26.495-4.671,47.972-16.936,64.452-36.759
	c16.492-19.814,24.752-42.062,24.752-66.751c0-30.275-10.556-55.914-31.639-76.913c-21.076-20.985-46.573-31.498-76.498-31.498
	l-115.502-0.002c-5.688,0-8.326,6.021-8.188,9.028c0.14,3.035,2,9,8,9l111.905,0.095c25.062,0,46.454,8.782,64.206,26.361
	c17.746,17.563,26.626,38.872,26.626,63.929c0,25.227-9.375,46.263-28.116,63.56c-18.745,17.311-41.354,25.736-67.848,25.736H674
	c-7.071,0-7.976,6.904-7.976,9.156c0,2.938,0.351,8.866,7.976,8.866l114.077,0.209l94.063,153.284
	c1.977,2.885,4.781,4.327,8.374,4.327c2.885,0,5.291-0.938,7.18-2.833c1.885-1.881,2.833-4.262,2.833-7.148
	c0-2.158-0.542-3.965-1.622-5.408L808.623,1913.214z M1138.378,1704.555c-1.791-3.262-4.552-4.877-8.238-4.877
	c-3.694,0-6.445,1.615-8.238,4.877l-172.726,355.982c-0.728,1.44-1.078,3.056-1.078,4.862c0,3.057,1.025,5.592,3.109,7.568
	c2.073,1.979,4.544,2.977,7.431,2.977c4.506,0.178,7.647-1.807,9.465-5.95l52.436-109.738l8.371-17.042l101.374-210.293
	l101.09,210.293l8.374,17.042l52.695,109.738c2.172,3.972,5.509,5.95,10.024,5.95c2.882,0,5.309-1.027,7.287-3.113
	c1.979-2.077,2.976-4.534,2.976-7.432c0-1.429-0.359-3.072-1.079-4.862L1138.378,1704.555z M1623.308,1726.171
	c-25.048-14.4-51.996-22.542-80.839-24.438c-0.006-0.043-0.006-0.085-0.013-0.128l-2.406-0.152
	c-3.579-0.191-7.182-0.453-10.818-0.453h-114.067l-25.164,0.23c-14,0-14,21,0,21c0,0,24.568-0.23,58.339-1.23h80.893
	c45.784,0,84.792,16.551,117.036,48.799c32.251,32.27,48.399,71.3,48.399,116.722c0,45.406-16.148,84.049-48.399,116.301
	c-32.244,32.254-71.252,48.179-117.036,48.179h-74.597H1389c-14,0-14,21,0,21c0,0,16.736,0,41.391,0h98.841
	c4.264,0,8.487,0,12.672-1c0.008,0,0.097,0,0.097,0v0.761c29-1.827,56.139-9.985,81.344-24.477
	c28.818-16.57,51.6-39.19,68.368-67.848c16.754-28.643,25.118-59.552,25.118-92.704c0-33.158-8.378-64.058-25.132-92.71
	C1674.93,1765.354,1652.125,1742.756,1623.308,1726.171z M2162.544,1698.058c-3.05,0-5.479,1.129-7.571,3.376
	c-2.062,2.267-2.973,4.832-2.973,7.718v8.371v0.003v343.539c0,0.049,0,0.096,0,0.145v0.424c0,0.381-0.097,0.714-0.023,1.01
	c0.331,2.397,1.354,4.482,3.202,6.28c2.242,2.158,4.885,3.235,7.943,3.235c3.05,0,5.646-1.129,7.738-3.376
	c2.062-2.267,3.14-4.832,3.14-7.718v-8.364v-0.01v-343.539c0-3.078-1.19-5.676-3.435-7.858
	C2168.323,1699.135,2165.603,1698.058,2162.544,1698.058z M2382.573,2052h-36.324L2204,2052.607c-13,0-13,19.393,0,19.393
	c2,0,4,0,6,0v0.321l172.781-0.101c2.52,0,4.638-0.93,6.535-2.737c1.889-1.807,2.783-4.012,2.783-6.635
	c0-2.612-0.973-5.312-2.861-7.374C2387.341,2053.4,2385.093,2052,2382.573,2052z M2774.367,1702.117
	c-2.248-1.979-4.826-2.982-7.698-2.982c-3.783,0-6.938,1.804-9.452,5.42l-156.77,215.976l-154.889-215.976
	c-2.163-3.616-5.316-5.42-9.479-5.42c-2.866,0-5.354,1.048-7.429,3.107c-2.062,2.077-3.11,4.751-3.11,7.98
	c0,2.171,0.366,3.978,1.446,5.412L2589,1941.056v122.727c0,3.422,1.314,6.13,3.549,8.106c2.254,1.98,4.979,2.968,7.944,2.968
	c2.974,0,5.824-1.033,7.982-3.107c2.162-2.072,3.524-4.723,3.524-7.967v-122.727l164.367-224.879
	c1.08-1.805,1.503-3.975,1.503-6.489C2777.87,1706.615,2776.635,1704.095,2774.367,1702.117z M1207,1944c-49,0-98.009,0-147.18,0
	c-3.607,0-7.214,0-10.82,0c-9.673,0-9.673,15,0,15c49.171,0,98.342,0,147.514,0c3.606,0,7.486,0,10.486,0
	C1217,1959,1217,1944,1207,1944z M1401,2025c0-15,0-29.542,0-44.556c0-57.141,0-114.555,0-172.189c0-5.599,0-11.207,0-16.811
	c0-9.396,0-18.781,0-28.189c0-5.338,0-11.255,0-17.255c0-13-22-13-22,0c0,0,0,16.082,0,39.671c0,1.873,0,3.804,0,5.773
	c0,49.112,0,127.01,0,174.106c0,5.339,0,10.894,0,14.894c0,10.889,0,21.066,0,30.106c0,5.339,0,10.449,0,14.449
	C1379,2040,1401,2040,1401,2025z M1815.717,1721.029c0,0,65.263-1.029,127.953-1.029h98.604c2.868,0,5.24-0.646,7.029-2.729
	c1.786-2.07,2.697-4.177,2.697-6.798c0-2.609-0.911-4.869-2.697-6.658c-1.789-1.812-4.161-2.815-7.029-2.815H1814.69
	c-6.322,0-9.474,3.312-9.474,9.619l0.024-0.027C1804.968,1715.799,1808.453,1721.029,1815.717,1721.029z M2047.674,2052h-198.716
	l-33.958,0.607c-13,0-13,19.589,0,19.589c0,0,0.853-0.196,2.209-0.196h230.465c2.872,0,5.271-0.818,7.161-2.627
	c1.897-1.807,2.833-3.957,2.833-6.58c0-2.612-0.936-5.282-2.833-7.345C2052.945,2053.373,2050.546,2052,2047.674,2052z M1827,2027
	c0-15,0-29.542,0-44.556c0-30.352,0-60.786,0-91.285l0.385,2.841h209.758c2.518,0,4.723-0.936,6.62-2.814
	c1.889-1.895,2.832-4.207,2.832-6.802c0-2.619-0.943-5.045-2.832-6.691c-1.897-1.615-4.103-2.692-6.62-2.692h-209.758l-0.385-9.955
	c0-18.243,0-36.501,0-54.79c0-5.599,0-11.207,0-16.811c0-9.396,0-18.781,0-28.189c0-5.338,0-11.255,0-17.255c0-13-22-13-22,0
	c0,0,0,16.082,0,39.671c0,1.873,0,3.804,0,5.773c0,49.112,0,127.01,0,174.106c0,5.339,0,10.894,0,14.894c0,10.889,0,21.066,0,30.106
	c0,5.339,0,10.449,0,14.449C1805,2042,1827,2042,1827,2027z"/>
<rect x="2345" y="148" fill="#344466" width="437" height="90"/>
<rect x="2345" y="285" fill="#DBD9D9" width="437" height="90"/>
<rect x="2345" y="422" fill="#D8B2AF" width="437" height="90"/>
<rect x="2345" y="558" fill="#D58C85" width="437" height="90"/>
<rect x="2345" y="695" fill="#D3665C" width="437" height="90"/>
<linearGradient id="SVGID_2_" gradientUnits="userSpaceOnUse" x1="122" y1="2606" x2="2782" y2="2606">
	<stop  offset="0" style="stop-color:#DBD9D9"/>
	<stop  offset="1" style="stop-color:#D3665C"/>
</linearGradient>
<rect x="122" y="2301" fill="url(#SVGID_2_)" width="2660" height="610"/>
<text transform="matrix(1 0 0 1 2092.3672 765.4443)" font-family="'MyriadPro-Regular'" font-size="66.7499">d3665c</text>
<text transform="matrix(1 0 0 1 2102.709 625.3232)" font-family="'MyriadPro-Regular'" font-size="60">d58c85</text>
<text transform="matrix(1 0 0 1 2105.4688 487.1831)" font-family="'MyriadPro-Regular'" font-size="60">d8b2af</text>
<text transform="matrix(1 0 0 1 2096.0176 349.0435)" font-family="'MyriadPro-Regular'" font-size="60">dbd9d9</text>
<text transform="matrix(1 0 0 1 2102.2891 210.9033)" font-family="'MyriadPro-Regular'" font-size="60">344466</text>
</svg>
