<?xml version="1.0" encoding="utf-8"?>
<!-- Generator: Adobe Illustrator 16.0.0, SVG Export Plug-In . SVG Version: 6.00 Build 0)  -->
<!DOCTYPE svg PUBLIC "-//W3C//DTD SVG 1.1//EN" "http://www.w3.org/Graphics/SVG/1.1/DTD/svg11.dtd">
<svg version="1.1" id="Layer_1" xmlns="http://www.w3.org/2000/svg" xmlns:xlink="http://www.w3.org/1999/xlink" x="0px" y="0px"
	 width="3000px" height="1541.691px" viewBox="0 0 3000 1541.691" enable-background="new 0 0 3000 1541.691" xml:space="preserve">
<g>
	<path fill="#D8B2AF" d="M1677.909,513.921c-26.682-19.759-59.875-17.39-94.471-17.902c-54.994,1.304-110.076,1.365-165.089-0.008
		c-33.128-0.829-67.724-1.75-94.634,17.427c-9.688,6.903-18.287,15.799-24.485,25.952c-11.081,18.156-12.298,40.253-12.167,61.947
		c0.475,80.602-0.104,161.202,0.311,241.795c0.207,38.388,2.703,40.953,41.16,41.073c114.541,0.337,229.074,0.32,343.615-0.069
		c38.508-0.129,41.452-3.161,41.66-40.736c0.434-74.945-1.252-149.924,0.777-224.817
		C1715.692,577.976,1710.31,537.915,1677.909,513.921z M1657.866,854.074c-53.701-0.562-107.41-0.199-161.117-0.181
		c-50.875,0.017-101.77-0.501-152.635,0.268c-21.048,0.319-30.537-6.46-30.247-29.13c0.979-74.892-0.411-149.82,0.737-224.712
		c0.717-46.748,25.709-72.656,74.037-75.325c45.089-2.487,90.412-1.036,135.631-1.071c29.674-0.026,59.493-1.382,88.986,1.02
		c45.953,3.73,70.895,28.197,71.932,73.278c1.743,76.283,0.215,152.636,0.891,228.944
		C1686.261,847.735,1677.063,854.273,1657.866,854.074z"/>
	<path fill="#D8B2AF" d="M1506.208,54.503c-17.576,0.334-24.754,5.64-41.457,13.102c-47.109,21.038-185.211,90.352-190.986,94.204
		c-17.09,11.398-16.707,23.872,2.693,34.553c14.768,8.162,30.027,15.502,45.383,22.532c13.17,6.027,20.855,15.104,16.624,29.812
		c-10.132,47.963-2.434,87.225,21.434,128.405c7.042,12.148,18.614,26.147,29.288,35.233
		c53.446,45.452,114.264,55.436,177.464,27.437c61.558-27.272,95.239-77.44,97.579-146.089c0.475-13.973-1.08-28.154-3.1-42.032
		c-1.709-11.745-4.301-24.864,10.561-27.308c17.93-2.936,14.623,12.989,14.941,23.266c0.725,23.931,0.12,47.896,0.683,71.835
		c0.233,9.811,1.097,21.513,14.958,20.451c10.449-0.795,11.971-10.7,12.072-19.276c0.381-29.57,0.234-59.158,0.477-88.745
		c0.068-9.777-1.721-20.148,3.834-28.888c6.347-9.992,24.604-13.81,18.827-29.665C1732.345,159.235,1518.903,54.503,1506.208,54.503
		z M1492.88,427.542c-77.995-4.3-138.705-76.646-128.834-153.524c3.316-25.796,8.281-28.923,32.816-17.912
		c25.719,11.546,51.281,23.55,76.225,36.669c19.336,10.173,37.17,9.517,56.23-0.415c23.738-12.375,47.963-23.879,72.336-34.977
		c26.849-12.22,32.125-9.06,35.303,19.379c0.475,4.18,0.07,8.446,0.07,12.678C1638.321,368.445,1571.884,431.896,1492.88,427.542z
		 M1637.95,207.891c-40.625,19.716-81.369,39.182-121.779,59.313c-11.356,5.647-21.287,4.612-32.133-0.794
		c-51.818-25.822-103.783-51.342-155.695-76.965c-5.266-2.608-17.955-9.364-10.432-15.191
		c52.785-33.405,111.613-57.146,168.5-84.609c11.115-5.371,22.039-3.834,32.506,1.762l153.582,77.155c0,0,7.828,4.295,7.541,10.089
		C1679.614,187.261,1655.985,199.491,1637.95,207.891z"/>
</g>
<linearGradient id="SVGID_1_" gradientUnits="userSpaceOnUse" x1="186.9502" y1="1286.7275" x2="2812.9961" y2="1286.7275">
	<stop  offset="0" style="stop-color:#DBD9D9"/>
	<stop  offset="1" style="stop-color:#D3665C"/>
</linearGradient>
<path fill="url(#SVGID_1_)" d="M533.204,1294.085c0.011,3.145-3.309,9.542-7.391,9.505l-141.265,0.158
	c-2.534,0-4.725-0.915-6.62-2.722c-1.889-1.789-2.853-3.943-2.853-6.378c0-2.422,0.887-4.59,2.72-6.401
	c1.786-1.807,4.051-2.803,6.753-2.803h141.647C531.383,1285.444,533.193,1291.321,533.204,1294.085z M563.734,1285.659
	c-7.605-0.562-10.688,3.729-11.304,8.068c-0.705,4.951-0.596,4.812-1.148,10.034c-3.656,43.411-20.021,79.725-51.997,109.463
	c-32.003,29.733-71.596,44.618-118.791,44.618c-47.213,0-87.584-16.727-121.099-50.158c-33.523-33.415-50.284-73.74-50.284-120.952
	c0-47.207,16.677-87.616,50.016-121.237c33.324-33.602,73.613-50.41,120.825-50.41c32.61,0,62.34,8.158,89.196,24.474
	c26.844,16.296,46.944,37.518,60.276,63.648c1.621,2.534,4.22,3.78,7.837,3.78c2.876,0,5.268-1.118,7.162-3.385
	c1.889-2.234,2.834-4.812,2.834-7.695c0-1.615-1.078-4.057-3.241-7.289c-15.125-28.285-37.384-50.962-66.764-67.984
	c-29.386-17.023-61.806-25.551-97.301-25.551c-34.972,0-67.306,8.617-97.056,25.816c-29.725,17.209-53.162,40.595-70.282,70.143
	c-17.124,29.551-25.664,61.451-25.664,95.69c0,34.607,8.649,66.584,25.933,95.946c17.312,29.379,40.697,52.671,70.146,69.875
	c29.482,17.23,61.766,25.817,96.923,25.817c35.854,0,68.558-8.318,98.11-25.009c29.545-16.662,52.614-38.917,69.195-66.745
	c16.582-27.851,25.23-58.53,25.959-92.044C573.217,1288.633,569.889,1286.117,563.734,1285.659z M671.99,1101.292
	c-6.32-0.075-10.99,3.166-10.99,9.473v354.1c0,3.055,1.336,5.59,3.412,7.562c2.062,1.979,4.696,2.98,7.583,2.98
	c2.869,0,5.602-1.033,7.664-3.114c2.053-2.083,3.341-4.542,3.341-7.429v-147.578v-17.851v-180.021l-0.282-8.553
	C682.759,1103.903,677.717,1101.36,671.99,1101.292z M843.791,1313.214c26.494-4.671,47.971-16.936,64.451-36.759
	c16.492-19.814,24.752-42.062,24.752-66.751c0-30.275-10.555-55.914-31.639-76.913c-21.076-20.985-46.573-31.498-76.498-31.498
	l-115.502-0.002c-5.688,0-8.326,6.021-8.188,9.028c0.14,3.035,2,9,8,9l111.905,0.095c25.062,0,46.454,8.782,64.206,26.361
	c17.745,17.563,26.626,38.872,26.626,63.929c0,25.227-9.375,46.484-28.116,63.781c-18.744,17.311-41.354,25.959-67.848,25.959
	H709.168c-7.071,0-7.976,6.682-7.976,8.934c0,2.938,0.351,8.756,7.976,8.756l114.076,0.153l94.063,153.257
	c1.978,2.885,4.781,4.312,8.374,4.312c2.885,0,5.291-0.945,7.18-2.84c1.885-1.881,2.833-4.266,2.833-7.152
	c0-2.158-0.542-3.966-1.622-5.409L843.791,1313.214z M1173.546,1104.555c-1.79-3.262-4.552-4.877-8.237-4.877
	c-3.694,0-6.445,1.615-8.238,4.877l-172.726,355.982c-0.728,1.44-1.078,3.056-1.078,4.862c0,3.057,1.025,5.592,3.108,7.568
	c2.073,1.979,4.545,2.977,7.432,2.977c4.506,0.178,7.646-1.807,9.465-5.95l52.436-109.738l8.371-17.042l101.373-210.293
	l101.09,210.293l8.374,17.042l52.695,109.738c2.172,3.972,5.509,5.95,10.024,5.95c2.882,0,5.309-1.027,7.286-3.113
	c1.979-2.077,2.976-4.534,2.976-7.432c0-1.429-0.359-3.072-1.078-4.862L1173.546,1104.555z M1658.476,1126.171
	c-25.048-14.4-51.996-22.542-80.839-24.438c-0.006-0.043-0.006-0.085-0.013-0.128l-2.407,0.069c-3.578-0.191-7.182-0.23-10.818-0.23
	h-114.066L1425,1101.23c-14,0-14,21,0,21c0,0,24.736,0.214,58.507-0.786h80.892c45.785,0,84.793,16.328,117.037,48.576
	c32.251,32.271,48.4,71.189,48.4,116.611c0,45.406-16.149,84.215-48.4,116.467c-32.244,32.254-71.252,48.346-117.037,48.346h-74.596
	H1424c-14,0-14,21,0,21c0,0,16.904,0,41.559,0h98.84c4.265,0,8.488,0,12.673-1c0.008,0-0.071,0-0.071,0s0,0.317,0,0.316
	c29-1.827,56.223-9.985,81.428-24.477c28.818-16.57,51.641-39.19,68.41-67.848c16.754-28.643,25.139-59.552,25.139-92.704
	c0-33.158-8.367-64.058-25.121-92.71C1710.087,1165.354,1687.293,1142.756,1658.476,1126.171z M2197.712,1098.058
	c-3.05,0-5.563,1.129-7.655,3.376c-2.062,2.267-3.057,4.832-3.057,7.718v8.371v0.003v343.539c0,0.049,0,0.096,0,0.145v0.424
	c0,0.381-0.014,0.714,0.061,1.01c0.33,2.397,1.396,4.482,3.244,6.28c2.242,2.158,4.906,3.235,7.965,3.235
	c3.049,0,5.573-1.129,7.664-3.376c2.063-2.267,3.066-4.832,3.066-7.718v-8.364v-0.01v-343.539c0-3.078-1.107-5.676-3.352-7.858
	C2203.406,1099.135,2200.771,1098.058,2197.712,1098.058z M2417.741,1452.444h-36.323L2239,1452.607c-13,0-13,19.837,0,19.837
	c2,0,4,0,6,0v-0.123l172.865-0.101c2.52,0,4.68-0.93,6.577-2.737c1.889-1.807,2.804-4.012,2.804-6.635
	c0-2.612-0.963-5.089-2.851-7.151C2422.498,1453.622,2420.261,1452.444,2417.741,1452.444z M2809.535,1102.117
	c-2.248-1.979-4.826-2.982-7.699-2.982c-3.783,0-6.938,1.804-9.451,5.42l-156.77,215.976l-154.889-215.976
	c-2.163-3.616-5.316-5.42-9.479-5.42c-2.866,0-5.354,1.048-7.429,3.107c-2.062,2.077-3.109,4.751-3.109,7.98
	c0,2.171,0.281,3.978,1.361,5.412L2624,1341.056v122.727c0,3.422,1.398,6.13,3.633,8.106c2.254,1.98,5.021,2.968,7.986,2.968
	c2.974,0,5.761-1.033,7.919-3.107c2.161-2.072,3.462-4.723,3.462-7.967v-122.727l164.451-224.879
	c1.08-1.805,1.545-3.975,1.545-6.489C2812.996,1106.615,2811.803,1104.095,2809.535,1102.117z M1242,1344.444
	c-49,0-97.841,0-147.012,0c-3.607,0-6.988,0-10.988,0c-10,0-10,15,0,15c49,0,98.51,0,147.682,0c3.606,0,7.318,0,10.318,0
	C1252,1359.444,1252,1344.444,1242,1344.444z M1436,1425.444c0-14.979,0-29.986,0-45c0-57.141,0-114.555,0-172.189
	c0-5.599,0-11.207,0-16.811c0-9.396,0-18.781,0-28.189c0-5.338,0-10.811,0-16.811c0-13-22-13-22,0c0,0,0,15.638,0,39.227
	c0,1.873,0,3.804,0,5.773c0,49.112,0,127.01,0,174.106c0,5.339,0,10.894,0,14.894c0,10.889,0,21.066,0,30.106
	c0,5.339,0,10.894,0,14.894C1414,1440.444,1436,1440.444,1436,1425.444z M1850.885,1121.251c0,0,65.263-0.807,127.953-0.807h98.604
	c2.868,0,5.24-0.868,7.029-2.951c1.786-2.069,2.697-4.287,2.697-6.908c0-2.609-0.911-4.703-2.697-6.492
	c-1.789-1.812-4.161-2.648-7.029-2.648h-227.583c-6.323,0-9.474,3.09-9.474,9.396l0.024-0.026
	C1840.135,1116.021,1843.621,1121.251,1850.885,1121.251z M2082.842,1452.444h-198.715l-34.127,0.163c-13,0-13,19.589,0,19.589
	c0,0,1.021,0.248,2.377,0.248h230.465c2.872,0,5.271-1.041,7.16-2.85c1.898-1.807,2.834-4.067,2.834-6.69
	c0-2.612-0.936-5.116-2.834-7.179C2088.113,1453.65,2085.714,1452.444,2082.842,1452.444z M1862,1427.444c0-14.979,0-29.986,0-45
	c0-30.352,0-60.786,0-91.285l0.553,3.285h209.758c2.518,0,4.723-1.157,6.62-3.037c1.888-1.895,2.832-4.317,2.832-6.912
	c0-2.619-0.944-4.879-2.832-6.525c-1.897-1.615-4.103-2.525-6.62-2.525h-209.758l-0.553-10.399c0-18.243,0-36.501,0-54.79
	c0-5.599,0-11.207,0-16.811c0-9.396,0-18.781,0-28.189c0-5.338,0-10.811,0-16.811c0-13-22-13-22,0c0,0,0,15.638,0,39.227
	c0,1.873,0,3.804,0,5.773c0,49.112,0,127.01,0,174.106c0,5.339,0,10.894,0,14.894c0,10.889,0,21.066,0,30.106
	c0,5.339,0,10.894,0,14.894C1840,1442.444,1862,1442.444,1862,1427.444z"/>
</svg>
