<?xml version="1.0" encoding="utf-8"?>
<!-- Generator: Adobe Illustrator 16.0.0, SVG Export Plug-In . SVG Version: 6.00 Build 0)  -->
<!DOCTYPE svg PUBLIC "-//W3C//DTD SVG 1.1//EN" "http://www.w3.org/Graphics/SVG/1.1/DTD/svg11.dtd">
<svg version="1.1" id="Layer_1" xmlns="http://www.w3.org/2000/svg" xmlns:xlink="http://www.w3.org/1999/xlink" x="0px" y="0px"
	 width="3000px" height="3000px" viewBox="0 0 3000 3000" enable-background="new 0 0 3000 3000" xml:space="preserve">
<g>
	<path fill="#D8B2AF" d="M1578.639,1070.477c-26.682-19.759-59.875-17.39-94.471-17.902c-54.994,1.304-110.076,1.365-165.088-0.008
		c-33.129-0.829-67.724-1.75-94.635,17.427c-9.687,6.903-18.287,15.799-24.484,25.952c-11.081,18.156-12.298,40.253-12.168,61.947
		c0.476,80.602-0.103,161.202,0.312,241.795c0.208,38.388,2.703,40.953,41.16,41.073c114.542,0.337,229.075,0.32,343.615-0.069
		c38.509-0.129,41.453-3.161,41.661-40.736c0.433-74.945-1.252-149.924,0.776-224.817
		C1616.422,1134.532,1611.04,1094.471,1578.639,1070.477z M1558.596,1410.63c-53.701-0.562-107.409-0.199-161.117-0.181
		c-50.875,0.017-101.769-0.501-152.635,0.268c-21.046,0.319-30.537-6.46-30.245-29.13c0.977-74.892-0.413-149.82,0.735-224.712
		c0.716-46.748,25.709-72.656,74.037-75.325c45.09-2.487,90.413-1.036,135.631-1.071c29.675-0.026,59.494-1.382,88.986,1.02
		c45.954,3.73,70.895,28.197,71.932,73.278c1.745,76.283,0.216,152.636,0.891,228.944
		C1586.99,1404.291,1577.793,1410.829,1558.596,1410.63z"/>
	<path fill="#D8B2AF" d="M1406.938,611.059c-17.575,0.334-24.754,5.64-41.456,13.102c-47.11,21.038-185.212,90.352-190.988,94.204
		c-17.089,11.398-16.707,23.872,2.694,34.553c14.768,8.162,30.028,15.502,45.384,22.532c13.169,6.027,20.855,15.104,16.624,29.812
		c-10.131,47.963-2.434,87.225,21.435,128.405c7.041,12.148,18.612,26.147,29.286,35.233
		c53.449,45.452,114.264,55.436,177.465,27.437c61.558-27.272,95.24-77.44,97.58-146.089c0.475-13.973-1.08-28.154-3.101-42.032
		c-1.709-11.745-4.301-24.864,10.562-27.308c17.929-2.936,14.622,12.989,14.94,23.266c0.726,23.931,0.121,47.896,0.684,71.835
		c0.232,9.811,1.097,21.513,14.957,20.451c10.45-0.795,11.971-10.7,12.073-19.276c0.38-29.57,0.234-59.158,0.476-88.745
		c0.068-9.777-1.72-20.148,3.834-28.888c6.348-9.992,24.604-13.81,18.828-29.665
		C1633.074,715.791,1419.634,611.059,1406.938,611.059z M1393.61,984.098c-77.994-4.3-138.707-76.646-128.835-153.524
		c3.317-25.796,8.283-28.923,32.818-17.912c25.719,11.546,51.281,23.55,76.223,36.669c19.336,10.173,37.17,9.517,56.23-0.415
		c23.74-12.375,47.964-23.879,72.336-34.977c26.85-12.22,32.125-9.06,35.304,19.379c0.475,4.18,0.069,8.446,0.069,12.678
		C1539.052,925.001,1472.613,988.452,1393.61,984.098z M1538.68,764.447c-40.624,19.716-81.369,39.182-121.778,59.313
		c-11.357,5.647-21.288,4.612-32.134-0.794c-51.817-25.822-103.782-51.342-155.694-76.965c-5.267-2.608-17.955-9.364-10.432-15.191
		c52.785-33.405,111.614-57.146,168.5-84.609c11.115-5.371,22.039-3.834,32.506,1.762l153.582,77.155c0,0,7.827,4.295,7.541,10.089
		C1580.345,743.817,1556.715,756.046,1538.68,764.447z"/>
</g>
<linearGradient id="SVGID_1_" gradientUnits="userSpaceOnUse" x1="239.7822" y1="1843.2832" x2="2865.8701" y2="1843.2832">
	<stop  offset="0" style="stop-color:#DBD9D9"/>
	<stop  offset="1" style="stop-color:#D3665C"/>
</linearGradient>
<path fill="url(#SVGID_1_)" d="M586.036,1850.641c0.01,3.145-3.309,9.542-7.391,9.505l-141.265,0.158
	c-2.534,0-4.724-0.915-6.62-2.722c-1.889-1.789-2.853-3.943-2.853-6.378c0-2.422,0.887-4.59,2.72-6.401
	c1.786-1.807,4.051-2.803,6.752-2.803h141.648C584.215,1842,586.025,1847.877,586.036,1850.641z M616.567,1842.215
	c-7.605-0.562-10.688,3.729-11.304,8.068c-0.705,4.951-0.596,4.812-1.148,10.034c-3.656,43.411-20.021,79.725-51.997,109.463
	c-32.003,29.733-71.596,44.618-118.791,44.618c-47.213,0-87.585-16.727-121.099-50.158c-33.523-33.415-50.284-73.74-50.284-120.952
	c0-47.207,16.676-87.616,50.015-121.237c33.325-33.602,73.613-50.41,120.825-50.41c32.61,0,62.34,8.158,89.196,24.474
	c26.845,16.296,46.945,37.518,60.277,63.648c1.621,2.534,4.22,3.78,7.837,3.78c2.876,0,5.268-1.118,7.162-3.385
	c1.889-2.234,2.834-4.812,2.834-7.695c0-1.615-1.079-4.057-3.242-7.289c-15.125-28.285-37.384-50.962-66.764-67.984
	c-29.386-17.023-61.806-25.551-97.301-25.551c-34.971,0-67.306,8.617-97.056,25.816c-29.724,17.209-53.161,40.595-70.282,70.143
	c-17.124,29.551-25.664,61.451-25.664,95.69c0,34.607,8.649,66.584,25.932,95.946c17.312,29.379,40.697,52.671,70.147,69.875
	c29.482,17.23,61.765,25.817,96.922,25.817c35.854,0,68.558-8.318,98.111-25.009c29.545-16.662,52.614-38.917,69.195-66.745
	c16.582-27.851,25.229-58.53,25.958-92.044C626.048,1845.188,622.721,1842.673,616.567,1842.215z M724.906,1657.848
	c-6.319-0.075-10.906,3.166-10.906,9.473v354.1c0,3.055,1.253,5.59,3.328,7.562c2.062,1.979,4.654,2.98,7.541,2.98
	c2.869,0,5.665-1.033,7.727-3.114c2.054-2.083,3.405-4.542,3.405-7.429v-147.578v-17.851V1675.97l-0.325-8.553
	C735.717,1660.459,730.633,1657.916,724.906,1657.848z M896.623,1869.77c26.495-4.671,47.972-16.936,64.452-36.759
	c16.492-19.814,24.752-42.062,24.752-66.751c0-30.275-10.556-55.914-31.639-76.913c-21.076-20.985-46.573-31.498-76.498-31.498
	l-115.502-0.002c-5.688,0-8.326,6.021-8.188,9.028c0.14,3.035,2,9,8,9l111.905,0.095c25.062,0,46.454,8.782,64.206,26.361
	c17.746,17.563,26.626,38.872,26.626,63.929c0,25.227-9.375,46.484-28.116,63.781c-18.745,17.311-41.354,25.959-67.848,25.959H762
	c-7.071,0-7.976,6.682-7.976,8.934c0,2.938,0.351,8.756,7.976,8.756l114.077,0.153L970.14,2027.1
	c1.977,2.885,4.781,4.312,8.374,4.312c2.885,0,5.291-0.945,7.18-2.84c1.885-1.881,2.833-4.266,2.833-7.152
	c0-2.158-0.542-3.966-1.622-5.409L896.623,1869.77z M1226.378,1661.11c-1.791-3.262-4.552-4.877-8.238-4.877
	c-3.694,0-6.445,1.615-8.238,4.877l-172.726,355.982c-0.728,1.44-1.078,3.056-1.078,4.862c0,3.057,1.025,5.592,3.109,7.568
	c2.073,1.979,4.544,2.977,7.431,2.977c4.506,0.178,7.647-1.807,9.465-5.95l52.436-109.738l8.371-17.042l101.374-210.293
	l101.09,210.293l8.374,17.042l52.695,109.738c2.172,3.972,5.509,5.95,10.024,5.95c2.882,0,5.309-1.027,7.287-3.113
	c1.979-2.077,2.976-4.534,2.976-7.432c0-1.429-0.359-3.072-1.079-4.862L1226.378,1661.11z M1711.308,1682.727
	c-25.048-14.4-51.996-22.542-80.839-24.438c-0.006-0.043-0.006-0.085-0.013-0.128l-2.406,0.069c-3.579-0.191-7.182-0.23-10.818-0.23
	h-114.067l-25.164-0.214c-14,0-14,21,0,21c0,0,24.568,0.214,58.339-0.786h80.893c45.784,0,84.792,16.328,117.036,48.576
	c32.251,32.271,48.399,71.189,48.399,116.611c0,45.406-16.148,84.215-48.399,116.467c-32.244,32.254-71.252,48.346-117.036,48.346
	h-74.597H1477c-14,0-14,21,0,21c0,0,16.736,0,41.391,0h98.841c4.264,0,8.487,0,12.672-1c0.008,0,0.097,0,0.097,0s0,0.317,0,0.316
	c29-1.827,56.139-9.985,81.344-24.477c28.818-16.57,51.6-39.19,68.368-67.848c16.754-28.643,25.118-59.552,25.118-92.704
	c0-33.158-8.378-64.058-25.132-92.71C1762.93,1721.91,1740.125,1699.312,1711.308,1682.727z M2250.544,1654.613
	c-3.05,0-5.479,1.129-7.571,3.376c-2.062,2.267-2.973,4.832-2.973,7.718v8.371v0.003v343.539c0,0.049,0,0.096,0,0.145v0.424
	c0,0.381-0.097,0.714-0.023,1.01c0.331,2.397,1.354,4.482,3.202,6.28c2.242,2.158,4.885,3.235,7.943,3.235
	c3.05,0,5.646-1.129,7.738-3.376c2.062-2.267,3.14-4.832,3.14-7.718v-8.364v-0.01v-343.539c0-3.078-1.19-5.676-3.435-7.858
	C2256.323,1655.69,2253.603,1654.613,2250.544,1654.613z M2470.573,2009h-36.324L2292,2009.163c-13,0-13,19.837,0,19.837
	c2,0,4,0,6,0v-0.123l172.781-0.101c2.52,0,4.638-0.93,6.535-2.737c1.889-1.807,2.783-4.012,2.783-6.635
	c0-2.612-0.973-5.089-2.861-7.151C2475.341,2010.178,2473.093,2009,2470.573,2009z M2862.367,1658.673
	c-2.248-1.979-4.826-2.982-7.698-2.982c-3.783,0-6.938,1.804-9.452,5.42l-156.77,215.976l-154.889-215.976
	c-2.163-3.616-5.316-5.42-9.479-5.42c-2.866,0-5.354,1.048-7.429,3.107c-2.062,2.077-3.11,4.751-3.11,7.98
	c0,2.171,0.366,3.978,1.446,5.412L2677,1897.611v122.727c0,3.422,1.314,6.13,3.549,8.106c2.254,1.98,4.979,2.968,7.944,2.968
	c2.974,0,5.824-1.033,7.982-3.107c2.162-2.072,3.524-4.723,3.524-7.967v-122.727l164.367-224.879
	c1.08-1.805,1.503-3.975,1.503-6.489C2865.87,1663.171,2864.635,1660.65,2862.367,1658.673z M1295,1901c-49,0-98.009,0-147.18,0
	c-3.607,0-7.214,0-10.82,0c-9.673,0-9.673,15,0,15c49.171,0,98.342,0,147.514,0c3.606,0,7.486,0,10.486,0
	C1305,1916,1305,1901,1295,1901z M1489,1982c0-14.979,0-29.986,0-45c0-57.141,0-114.555,0-172.189c0-5.599,0-11.207,0-16.811
	c0-9.396,0-18.781,0-28.189c0-5.338,0-10.811,0-16.811c0-13-22-13-22,0c0,0,0,15.638,0,39.227c0,1.873,0,3.804,0,5.773
	c0,49.112,0,127.01,0,174.106c0,5.339,0,10.894,0,14.894c0,10.889,0,21.066,0,30.106c0,5.339,0,10.894,0,14.894
	C1467,1997,1489,1997,1489,1982z M1903.717,1677.807c0,0,65.263-0.807,127.953-0.807h98.604c2.868,0,5.24-0.868,7.029-2.951
	c1.786-2.069,2.697-4.287,2.697-6.908c0-2.609-0.911-4.703-2.697-6.492c-1.789-1.812-4.161-2.648-7.029-2.648H1902.69
	c-6.322,0-9.474,3.09-9.474,9.396l0.024-0.026C1892.968,1672.577,1896.453,1677.807,1903.717,1677.807z M2135.674,2009h-198.716
	l-33.958,0.163c-13,0-13,19.589,0,19.589c0,0,0.853,0.248,2.209,0.248h230.465c2.872,0,5.271-1.041,7.161-2.85
	c1.897-1.807,2.833-4.067,2.833-6.69c0-2.612-0.936-5.116-2.833-7.179C2140.945,2010.206,2138.546,2009,2135.674,2009z M1915,1984
	c0-14.979,0-29.986,0-45c0-30.352,0-60.786,0-91.285l0.385,3.285h209.758c2.518,0,4.723-1.157,6.62-3.037
	c1.889-1.895,2.832-4.317,2.832-6.912c0-2.619-0.943-4.879-2.832-6.525c-1.897-1.615-4.103-2.525-6.62-2.525h-209.758l-0.385-10.399
	c0-18.243,0-36.501,0-54.79c0-5.599,0-11.207,0-16.811c0-9.396,0-18.781,0-28.189c0-5.338,0-10.811,0-16.811c0-13-22-13-22,0
	c0,0,0,15.638,0,39.227c0,1.873,0,3.804,0,5.773c0,49.112,0,127.01,0,174.106c0,5.339,0,10.894,0,14.894c0,10.889,0,21.066,0,30.106
	c0,5.339,0,10.894,0,14.894C1893,1999,1915,1999,1915,1984z"/>
<rect x="2433" y="105" fill="#344466" width="437" height="90"/>
<rect x="2433" y="242" fill="#DBD9D9" width="437" height="90"/>
<rect x="2433" y="379" fill="#D8B2AF" width="437" height="90"/>
<rect x="2433" y="515" fill="#D58C85" width="437" height="90"/>
<rect x="2433" y="652" fill="#D3665C" width="437" height="90"/>
<linearGradient id="SVGID_2_" gradientUnits="userSpaceOnUse" x1="210" y1="2563" x2="2870" y2="2563">
	<stop  offset="0" style="stop-color:#DBD9D9"/>
	<stop  offset="1" style="stop-color:#D3665C"/>
</linearGradient>
<rect x="210" y="2258" fill="url(#SVGID_2_)" width="2660" height="610"/>
</svg>
